<svg xmlns="http://www.w3.org/2000/svg" viewBox="0 0 403.32 274.54"><defs><style>.cls-1{fill:#231f20;}.cls-2{fill:none;}</style></defs><g id="Layer_2" data-name="Layer 2"><g id="Layer_1-2" data-name="Layer 1"><path class="cls-1" d="M186.19,179.69V148H218v31.72Z"/><path class="cls-1" d="M403.32,157.75v21.94h-47.1V161.33q-18.84,20.5-45,20.51-18.13,0-32-8.53a58.6,58.6,0,0,1-21.58-23.19A68.73,68.73,0,0,1,250,117.69a69.62,69.62,0,0,1,8.17-33.39A63.18,63.18,0,0,1,280.74,60,57.86,57.86,0,0,1,312,51a55.83,55.83,0,0,1,23.08,4.89Q346,60.81,356.22,71.3V21.7H332V0h48.64V157.75Zm-87.4,2.15a36.59,36.59,0,0,0,20.63-6.08A42.55,42.55,0,0,0,351,137.6a46.51,46.51,0,0,0,5.25-21.7A43.92,43.92,0,0,0,351,94.56a39.47,39.47,0,0,0-35.53-20.87,35.2,35.2,0,0,0-20.21,6,42.33,42.33,0,0,0-14,16,47.58,47.58,0,0,0,.12,43.22,39.82,39.82,0,0,0,14.31,15.38A37.71,37.71,0,0,0,315.92,159.9Z"/><path class="cls-2" d="M109,80a38.17,38.17,0,0,0-20.51-5.61A37,37,0,0,0,68,80.27,40.34,40.34,0,0,0,53.83,96.12a48.2,48.2,0,0,0-5.12,22.3A44.6,44.6,0,0,0,54,139.88a39.92,39.92,0,0,0,14.31,15.39,37.39,37.39,0,0,0,20,5.6,36,36,0,0,0,20.87-6.32A42.29,42.29,0,0,0,123.35,138a49.07,49.07,0,0,0,5-21.82,43.59,43.59,0,0,0-5.13-21A39.38,39.38,0,0,0,109,80Z"/><path d="M144.81,85.1a60.57,60.57,0,0,0-21.76-23.67,57.52,57.52,0,0,0-31.24-8.76Q65,52.67,46.15,73.89V23.34H68.32V1.63H22.18V23.34h0v136H0v21.94H46.15V162.49a47.36,47.36,0,0,0,19.37,15.38,62.38,62.38,0,0,0,26.05,5.6,56.39,56.39,0,0,0,31.24-9,62.85,62.85,0,0,0,21.89-24.15,70.16,70.16,0,0,0,7.92-33A68.3,68.3,0,0,0,144.81,85.1Zm-23.07,53.54a42.22,42.22,0,0,1-14.19,16.57,35.86,35.86,0,0,1-20.86,6.32,37.39,37.39,0,0,1-20-5.6,39.86,39.86,0,0,1-14.3-15.38,44.68,44.68,0,0,1-5.25-21.47,48.16,48.16,0,0,1,5.13-22.29A40.15,40.15,0,0,1,66.42,80.93a37,37,0,0,1,20.5-5.85,38.14,38.14,0,0,1,20.51,5.61,39.45,39.45,0,0,1,14.19,15.14,43.62,43.62,0,0,1,5.13,21A49.07,49.07,0,0,1,121.74,138.64Z"/><ellipse cx="89.66" cy="135.8" rx="10.4" ry="12.18"/><ellipse cx="317.29" cy="135.8" rx="10.4" ry="12.18"/><path class="cls-1" d="M36.11,220.22a12.32,12.32,0,0,1-1.58,6.29,10.36,10.36,0,0,1-4.61,4.18,13,13,0,0,1,6.54,4.73A12.81,12.81,0,0,1,38.73,243q0,7.23-5.3,11t-15.86,3.78H0v-6.32H6.26V213.46H0v-6.33H17.84q9.24,0,13.76,3.23T36.11,220.22Zm-7.57.4A6.15,6.15,0,0,0,26,215.26q-2.52-1.8-7.13-1.8h-5v14.8H19Q28.54,228.26,28.54,220.62ZM31,242.9a7.11,7.11,0,0,0-3-6.27q-3-2.07-9.24-2.07H13.86v17h3a41.22,41.22,0,0,0,7.47-.56,8.82,8.82,0,0,0,4.77-2.42C30.35,247.29,31,245.42,31,242.9Z"/><path class="cls-1" d="M73.83,235v16.69h5.93v6.19H67.71V253.5a15.72,15.72,0,0,1-11.24,4.95,12,12,0,0,1-6-1.51,12.13,12.13,0,0,1-4.35-4.06,10.64,10.64,0,0,1,.17-11.58,11.88,11.88,0,0,1,4.86-4,14.66,14.66,0,0,1,6.16-1.41,16.88,16.88,0,0,1,9.66,3v-3.8q0-4.14-1.75-5.93c-1.17-1.19-3.08-1.78-5.75-1.78a9.79,9.79,0,0,0-4.73,1,8.17,8.17,0,0,0-3.15,3.11L45,229.88a14.84,14.84,0,0,1,6.09-6.28,19,19,0,0,1,9.12-2.07q7.1,0,10.38,3.23T73.83,235ZM57.41,253.1q5.12,0,9.59-4.27v-4.14a14.77,14.77,0,0,0-9.08-3.54,7,7,0,0,0-4.77,1.74,5.81,5.81,0,0,0-.25,8.54A6.28,6.28,0,0,0,57.41,253.1Z"/><path class="cls-1" d="M105.13,224v-1.51h6.06v11.74h-6.06v-2.15a9.56,9.56,0,0,0-8.28-4.34,7.75,7.75,0,0,0-4.51,1.21,3.65,3.65,0,0,0-1.75,3.13,3.15,3.15,0,0,0,1.33,2.69q1.33,1,6,1.72l4.68.9Q113,239.3,113,247.65a9.46,9.46,0,0,1-3.79,7.84q-3.78,3-10,3a17,17,0,0,1-4.9-.72,15.66,15.66,0,0,1-4-1.8v1.91H84.1V245.73h6.19v1.21a6.21,6.21,0,0,0,2.84,4.11,9.63,9.63,0,0,0,5.44,1.54,10.2,10.2,0,0,0,5.35-1.19,3.9,3.9,0,0,0,2-3.55,2.77,2.77,0,0,0-1.55-2.57,24.09,24.09,0,0,0-6.22-1.77l-3.6-.78c-3.57-.71-6.19-1.95-7.85-3.7a9.33,9.33,0,0,1-2.49-6.69A8.83,8.83,0,0,1,86,226.7a11.32,11.32,0,0,1,4.69-3.52A15.43,15.43,0,0,1,96.58,222,17,17,0,0,1,105.13,224Z"/><path class="cls-1" d="M135.25,251.65v6.19H117.38v-6.19h5.52v-23h-5.52v-6.22h12.48v29.17Zm-5-41.09a4.27,4.27,0,0,1-4.21,4.21,3.92,3.92,0,0,1-2.93-1.25,4.23,4.23,0,0,1,0-5.92,4,4,0,0,1,2.93-1.24,4.13,4.13,0,0,1,4.21,4.2Z"/><path class="cls-1" d="M156.68,251.65v6.19H138.07v-6.19h6.26V213.26h-6.26v-6.13H151.3v44.52Z"/><path class="cls-1" d="M228.56,231.73q0,13-7.85,19.57t-23.37,6.54h-19v-6.32h6.8V213.46h-6.8v-6.33h19.28q15.59,0,23.24,5.89T228.56,231.73Zm-8.34.34A21.58,21.58,0,0,0,218,221.53a13.9,13.9,0,0,0-7.2-6.07q-4.94-2-13-2h-4.88v38.06h4.81q11.72,0,17.13-4.7T220.22,232.07Z"/><path class="cls-1" d="M251.58,251.65v6.19H233.71v-6.19h5.52v-23h-5.52v-6.22H246.2v29.17Zm-5-41.09a4.25,4.25,0,0,1-4.2,4.21,3.9,3.9,0,0,1-2.93-1.25,4.23,4.23,0,0,1,0-5.92,3.93,3.93,0,0,1,2.93-1.24,4.13,4.13,0,0,1,4.2,4.2Z"/><path class="cls-1" d="M285.71,227.59v-5.11H299v6.22h-6.4v26.52q0,9.25-4.66,14.28t-13.61,5a22.51,22.51,0,0,1-14.47-4.78l4.48-5a19.58,19.58,0,0,0,4.86,2.68,15.52,15.52,0,0,0,5.33.89,10.53,10.53,0,0,0,8.21-3.26,12.36,12.36,0,0,0,3-8.65v-3.3a15.91,15.91,0,0,1-5.81,4.24,17.31,17.31,0,0,1-7,1.55,16.12,16.12,0,0,1-8.83-2.49,17.4,17.4,0,0,1-6.12-6.62,18.83,18.83,0,0,1-2.21-9,19.41,19.41,0,0,1,2.31-9.32,18.16,18.16,0,0,1,6.31-6.87,16.19,16.19,0,0,1,8.88-2.55,15.7,15.7,0,0,1,6.55,1.37A21.12,21.12,0,0,1,285.71,227.59ZM274.2,252.66a11,11,0,0,0,5.95-1.65,11.41,11.41,0,0,0,4.14-4.44,12.62,12.62,0,0,0,1.48-6,12.22,12.22,0,0,0-1.48-5.82,12,12,0,0,0-4.1-4.51,10.84,10.84,0,0,0-11.61-.07,11.31,11.31,0,0,0-4,4.44,12.83,12.83,0,0,0-1.45,6,13.36,13.36,0,0,0,1.38,6.06,10.86,10.86,0,0,0,3.92,4.38A10.66,10.66,0,0,0,274.2,252.66Z"/><path class="cls-1" d="M319.42,251.65v6.19H301.56v-6.19h5.51v-23h-5.51v-6.22H314v29.17Zm-5-41.09a4.25,4.25,0,0,1-4.2,4.21,3.9,3.9,0,0,1-2.93-1.25,4.23,4.23,0,0,1,0-5.92,3.93,3.93,0,0,1,2.93-1.24,4.13,4.13,0,0,1,4.2,4.2Z"/><path class="cls-1" d="M341.27,222.48v6.22h-6.46v18.54c0,1.93.2,3.18.62,3.76a2.45,2.45,0,0,0,2.13.85,11.48,11.48,0,0,0,3.71-.63v6.29a19.64,19.64,0,0,1-5.22.94c-2.92,0-5-.73-6.29-2.2s-1.92-4-1.92-7.56v-20h-4.61v-6.22h4.61v-5.35l7-6.37v11.72Z"/><path class="cls-1" d="M376.16,235v16.69h5.93v6.19H370V253.5a15.72,15.72,0,0,1-11.24,4.95,12.05,12.05,0,0,1-6-1.51,12.18,12.18,0,0,1-4.34-4.06,10.64,10.64,0,0,1,.17-11.58,11.88,11.88,0,0,1,4.86-4,14.66,14.66,0,0,1,6.16-1.41,16.88,16.88,0,0,1,9.66,3v-3.8q0-4.14-1.75-5.93c-1.17-1.19-3.08-1.78-5.75-1.78a9.79,9.79,0,0,0-4.73,1,8.17,8.17,0,0,0-3.15,3.11l-6.66-1.65a14.84,14.84,0,0,1,6.09-6.28,19,19,0,0,1,9.12-2.07q7.1,0,10.38,3.23T376.16,235ZM359.74,253.1q5.11,0,9.59-4.27v-4.14a14.78,14.78,0,0,0-9.09-3.54,7,7,0,0,0-4.76,1.74,5.81,5.81,0,0,0-.25,8.54A6.28,6.28,0,0,0,359.74,253.1Z"/><path class="cls-1" d="M403.32,251.65v6.19H384.71v-6.19H391V213.26h-6.26v-6.13h13.23v44.52Z"/><ellipse class="cls-1" cx="273.91" cy="235.31" rx="3.45" ry="3.76"/></g></g></svg>